<svg xmlns="http://www.w3.org/2000/svg" viewBox="0 0 32 32" width="32" height="32">
  <defs>
    <linearGradient id="g" x1="0" y1="0" x2="32" y2="32" gradientUnits="userSpaceOnUse">
      <stop offset="0" stop-color="#163D78"/>
      <stop offset="1" stop-color="#0A2540"/>
    </linearGradient>
  </defs>
  <rect width="32" height="32" rx="7" fill="url(#g)"/>
  <!-- Colosseum: domed top, tiered arcade -->
  <path fill="#ffffff" d="M5 22 V13 Q16 8 27 13 V22 Z"/>
  <g fill="#0A2540">
    <!-- cornice / tier line -->
    <path d="M6 15.4 H26 V16.2 H6 Z"/>
    <!-- ground arches -->
    <path d="M7.1 21 V17.5 Q9.35 16 11.6 17.5 V21 Z"/>
    <path d="M13.7 21 V17.5 Q15.95 16 18.2 17.5 V21 Z"/>
    <path d="M20.3 21 V17.5 Q22.55 16 24.8 17.5 V21 Z"/>
    <!-- upper colonnade windows -->
    <path d="M11.5 12.4 H13.3 V14.6 H11.5 Z"/>
    <path d="M15.1 11.9 H16.9 V14.6 H15.1 Z"/>
    <path d="M18.7 12.4 H20.5 V14.6 H18.7 Z"/>
  </g>
</svg>
